<?xml version="1.0" encoding="UTF-8" standalone="no"?>
<svg
   width="48"
   height="48"
   viewBox="0 0 48 48"
   fill="none"
   stroke="currentColor"
   stroke-width="2"
   stroke-linecap="round"
   stroke-linejoin="round"
   class="lucide lucide-shopping-bag-icon lucide-shopping-bag"
   version="1.1"
   id="svg8"
   sodipodi:docname="icon.svg"
   inkscape:version="1.1.2 (0a00cf5339, 2022-02-04)"
   xmlns:inkscape="http://www.inkscape.org/namespaces/inkscape"
   xmlns:sodipodi="http://sodipodi.sourceforge.net/DTD/sodipodi-0.dtd"
   xmlns="http://www.w3.org/2000/svg"
   xmlns:svg="http://www.w3.org/2000/svg">
  <defs
     id="defs12" />
  <sodipodi:namedview
     id="namedview10"
     pagecolor="#ffffff"
     bordercolor="#666666"
     borderopacity="1.0"
     inkscape:pageshadow="2"
     inkscape:pageopacity="0.0"
     inkscape:pagecheckerboard="0"
     showgrid="false"
     inkscape:zoom="8.6666665"
     inkscape:cx="-5.1346155"
     inkscape:cy="21.346154"
     inkscape:window-width="1920"
     inkscape:window-height="1048"
     inkscape:window-x="1920"
     inkscape:window-y="0"
     inkscape:window-maximized="1"
     inkscape:current-layer="svg8" />
  <g
     id="g1028"
     transform="matrix(2.1818182,0,0,2.1818182,-2.1156364,-2.1818182)">
    <path
       d="M 16,10 A 4,4 0 0 1 8,10"
       id="path2"
       style="stroke:#0000fe;stroke-opacity:1" />
    <path
       d="M 3.103,6.034 H 20.897"
       id="path4"
       style="stroke:#0000fe;stroke-opacity:1" />
    <path
       d="M 3.4,5.467 A 2,2 0 0 0 3,6.667 V 20 a 2,2 0 0 0 2,2 h 14 a 2,2 0 0 0 2,-2 V 6.667 a 2,2 0 0 0 -0.4,-1.2 L 18.6,2.8 A 2,2 0 0 0 17,2 H 7 A 2,2 0 0 0 5.4,2.8 Z"
       id="path6"
       style="stroke:#0000fe;stroke-opacity:1" />
  </g>
</svg>
