<?xml version="1.0" encoding="UTF-8" standalone="no"?>
<svg
   width="24"
   height="24"
   viewBox="0 0 24 24"
   fill="none"
   stroke="currentColor"
   stroke-width="2"
   stroke-linecap="round"
   stroke-linejoin="round"
   class="lucide lucide-shopping-bag-icon lucide-shopping-bag"
   version="1.1"
   id="svg8"
   sodipodi:docname="icon-white.svg"
   inkscape:version="1.1.2 (0a00cf5339, 2022-02-04)"
   xmlns:inkscape="http://www.inkscape.org/namespaces/inkscape"
   xmlns:sodipodi="http://sodipodi.sourceforge.net/DTD/sodipodi-0.dtd"
   xmlns="http://www.w3.org/2000/svg"
   xmlns:svg="http://www.w3.org/2000/svg">
  <defs
     id="defs12" />
  <sodipodi:namedview
     id="namedview10"
     pagecolor="#ffffff"
     bordercolor="#666666"
     borderopacity="1.0"
     inkscape:pageshadow="2"
     inkscape:pageopacity="0.0"
     inkscape:pagecheckerboard="0"
     showgrid="false"
     inkscape:zoom="17.333333"
     inkscape:cx="6.8653847"
     inkscape:cy="14.423077"
     inkscape:window-width="1475"
     inkscape:window-height="778"
     inkscape:window-x="334"
     inkscape:window-y="117"
     inkscape:window-maximized="0"
     inkscape:current-layer="svg8" />
  <path
     d="M16 10a4 4 0 0 1-8 0"
     id="path2"
     style="stroke:#facc15;stroke-opacity:1" />
  <path
     d="M3.103 6.034h17.794"
     id="path4"
     style="stroke:#ffffff;stroke-opacity:1" />
  <path
     d="M3.4 5.467a2 2 0 0 0-.4 1.2V20a2 2 0 0 0 2 2h14a2 2 0 0 0 2-2V6.667a2 2 0 0 0-.4-1.2l-2-2.667A2 2 0 0 0 17 2H7a2 2 0 0 0-1.6.8z"
     id="path6"
     style="stroke:#ffffff;stroke-opacity:1" />
</svg>
