<?xml version="1.0" encoding="UTF-8" standalone="no"?>
<svg
   version="1.1"
   width="1920"
   height="1080"
   preserveAspectRatio="none"
   viewBox="0 0 1920 1080"
   id="svg890"
   sodipodi:docname="drawing.svg"
   inkscape:version="1.1.2 (0a00cf5339, 2022-02-04)"
   xmlns:inkscape="http://www.inkscape.org/namespaces/inkscape"
   xmlns:sodipodi="http://sodipodi.sourceforge.net/DTD/sodipodi-0.dtd"
   xmlns="http://www.w3.org/2000/svg"
   xmlns:svg="http://www.w3.org/2000/svg">
  <sodipodi:namedview
     id="namedview892"
     pagecolor="#ffffff"
     bordercolor="#666666"
     borderopacity="1.0"
     inkscape:pageshadow="2"
     inkscape:pageopacity="0.0"
     inkscape:pagecheckerboard="0"
     showgrid="false"
     inkscape:zoom="0.32838542"
     inkscape:cx="1152.609"
     inkscape:cy="484.18716"
     inkscape:window-width="1920"
     inkscape:window-height="1048"
     inkscape:window-x="0"
     inkscape:window-y="0"
     inkscape:window-maximized="1"
     inkscape:current-layer="svg890" />
  <defs
     id="defs888">
    <mask
       id="SvgjsMask1010">
      <rect
         width="1920"
         height="1080"
         fill="#ffffff"
         id="rect885" />
    </mask>
  </defs>
  <g
     stroke-width="1"
     stroke="#0000fe"
     fill="none"
     stroke-linecap="round"
     id="g6612"
     transform="matrix(1.3492621,0,0,0.72695705,0.67463105,663.34831)"
     style="opacity:0.2">
    <path
       d="m 0,-912 q 355.5,812 711,1312 355.5,500 711,-1312"
       opacity="0.05"
       id="path6538" />
    <path
       d="m 0,-888 q 355.5,788 711,1288 355.5,500 711,-1288"
       opacity="0.08"
       id="path6540" />
    <path
       d="m 0,-864 q 355.5,764 711,1264 355.5,500 711,-1264"
       opacity="0.1"
       id="path6542" />
    <path
       d="m 0,-840 q 355.5,740 711,1240 355.5,500 711,-1240"
       opacity="0.13"
       id="path6544" />
    <path
       d="m 0,-816 q 355.5,716 711,1216 355.5,500 711,-1216"
       opacity="0.15"
       id="path6546" />
    <path
       d="m 0,-792 q 355.5,692 711,1192 355.5,500 711,-1192"
       opacity="0.18"
       id="path6548" />
    <path
       d="m 0,-768 q 355.5,668 711,1168 355.5,500 711,-1168"
       opacity="0.2"
       id="path6550" />
    <path
       d="m 0,-744 q 355.5,644 711,1144 355.5,500 711,-1144"
       opacity="0.23"
       id="path6552" />
    <path
       d="m 0,-720 q 355.5,620 711,1120 355.5,500 711,-1120"
       opacity="0.26"
       id="path6554" />
    <path
       d="m 0,-696 q 355.5,596 711,1096 355.5,500 711,-1096"
       opacity="0.28"
       id="path6556" />
    <path
       d="m 0,-672 q 355.5,572 711,1072 355.5,500 711,-1072"
       opacity="0.31"
       id="path6558" />
    <path
       d="m 0,-648 q 355.5,548 711,1048 355.5,500 711,-1048"
       opacity="0.33"
       id="path6560" />
    <path
       d="m 0,-624 q 355.5,524 711,1024 355.5,500 711,-1024"
       opacity="0.36"
       id="path6562" />
    <path
       d="m 0,-600 q 355.5,500 711,1000 355.5,500 711,-1000"
       opacity="0.38"
       id="path6564" />
    <path
       d="m 0,-576 q 355.5,476 711,976 355.5,500 711,-976"
       opacity="0.41"
       id="path6566" />
    <path
       d="m 0,-552 q 355.5,452 711,952 355.5,500 711,-952"
       opacity="0.44"
       id="path6568" />
    <path
       d="m 0,-528 q 355.5,428 711,928 355.5,500 711,-928"
       opacity="0.46"
       id="path6570" />
    <path
       d="m 0,-504 q 355.5,404 711,904 355.5,500 711,-904"
       opacity="0.49"
       id="path6572" />
    <path
       d="m 0,-480 q 355.5,380 711,880 355.5,500 711,-880"
       opacity="0.51"
       id="path6574" />
    <path
       d="m 0,-456 q 355.5,356 711,856 355.5,500 711,-856"
       opacity="0.54"
       id="path6576" />
    <path
       d="m 0,-432 q 355.5,332 711,832 355.5,500 711,-832"
       opacity="0.56"
       id="path6578" />
    <path
       d="m 0,-408 q 355.5,308 711,808 355.5,500 711,-808"
       opacity="0.59"
       id="path6580" />
    <path
       d="m 0,-384 q 355.5,284 711,784 355.5,500 711,-784"
       opacity="0.61"
       id="path6582" />
    <path
       d="m 0,-360 q 355.5,260 711,760 355.5,500 711,-760"
       opacity="0.64"
       id="path6584" />
    <path
       d="m 0,-336 q 355.5,236 711,736 355.5,500 711,-736"
       opacity="0.67"
       id="path6586" />
    <path
       d="m 0,-312 q 355.5,212 711,712 355.5,500 711,-712"
       opacity="0.69"
       id="path6588" />
    <path
       d="m 0,-288 q 355.5,188 711,688 355.5,500 711,-688"
       opacity="0.72"
       id="path6590" />
    <path
       d="m 0,-264 q 355.5,164 711,664 355.5,500 711,-664"
       opacity="0.74"
       id="path6592" />
    <path
       d="m 0,-240 q 355.5,140 711,640 355.5,500 711,-640"
       opacity="0.77"
       id="path6594" />
    <path
       d="m 0,-216 q 355.5,116 711,616 355.5,500 711,-616"
       opacity="0.79"
       id="path6596" />
    <path
       d="m 0,-192 q 355.5,92 711,592 355.5,500 711,-592"
       opacity="0.82"
       id="path6598" />
    <path
       d="m 0,-168 q 355.5,68 711,568 355.5,500 711,-568"
       opacity="0.85"
       id="path6600" />
    <path
       d="m 0,-144 q 355.5,44 711,544 355.5,500 711,-544"
       opacity="0.87"
       id="path6602" />
    <path
       d="m 0,-120 q 355.5,20 711,520 355.5,500 711,-520"
       opacity="0.9"
       id="path6604" />
    <path
       d="m 0,-96 q 355.5,-4 711,496 355.5,500 711,-496"
       opacity="0.92"
       id="path6606" />
    <path
       d="m 0,-72 q 355.5,-28 711,472 355.5,500 711,-472"
       opacity="0.95"
       id="path6608" />
    <path
       d="m 0,-48 q 355.5,-52 711,448 355.5,500 711,-448"
       opacity="0.97"
       id="path6610" />
  </g>
  <g
     stroke-width="1"
     stroke="#0000fe"
     fill="none"
     stroke-linecap="round"
     id="g9949"
     transform="matrix(1.3492621,0,0,0.72695705,447.32526,-168.18157)"
     style="opacity:0.1">
    <path
       d="m 0,-912 q 355.5,812 711,1312 355.5,500 711,-1312"
       opacity="0.05"
       id="path9875" />
    <path
       d="m 0,-888 q 355.5,788 711,1288 355.5,500 711,-1288"
       opacity="0.08"
       id="path9877" />
    <path
       d="m 0,-864 q 355.5,764 711,1264 355.5,500 711,-1264"
       opacity="0.1"
       id="path9879" />
    <path
       d="m 0,-840 q 355.5,740 711,1240 355.5,500 711,-1240"
       opacity="0.13"
       id="path9881" />
    <path
       d="m 0,-816 q 355.5,716 711,1216 355.5,500 711,-1216"
       opacity="0.15"
       id="path9883" />
    <path
       d="m 0,-792 q 355.5,692 711,1192 355.5,500 711,-1192"
       opacity="0.18"
       id="path9885" />
    <path
       d="m 0,-768 q 355.5,668 711,1168 355.5,500 711,-1168"
       opacity="0.2"
       id="path9887" />
    <path
       d="m 0,-744 q 355.5,644 711,1144 355.5,500 711,-1144"
       opacity="0.23"
       id="path9889" />
    <path
       d="m 0,-720 q 355.5,620 711,1120 355.5,500 711,-1120"
       opacity="0.26"
       id="path9891" />
    <path
       d="m 0,-696 q 355.5,596 711,1096 355.5,500 711,-1096"
       opacity="0.28"
       id="path9893" />
    <path
       d="m 0,-672 q 355.5,572 711,1072 355.5,500 711,-1072"
       opacity="0.31"
       id="path9895" />
    <path
       d="m 0,-648 q 355.5,548 711,1048 355.5,500 711,-1048"
       opacity="0.33"
       id="path9897" />
    <path
       d="m 0,-624 q 355.5,524 711,1024 355.5,500 711,-1024"
       opacity="0.36"
       id="path9899" />
    <path
       d="m 0,-600 q 355.5,500 711,1000 355.5,500 711,-1000"
       opacity="0.38"
       id="path9901" />
    <path
       d="m 0,-576 q 355.5,476 711,976 355.5,500 711,-976"
       opacity="0.41"
       id="path9903" />
    <path
       d="m 0,-552 q 355.5,452 711,952 355.5,500 711,-952"
       opacity="0.44"
       id="path9905" />
    <path
       d="m 0,-528 q 355.5,428 711,928 355.5,500 711,-928"
       opacity="0.46"
       id="path9907" />
    <path
       d="m 0,-504 q 355.5,404 711,904 355.5,500 711,-904"
       opacity="0.49"
       id="path9909" />
    <path
       d="m 0,-480 q 355.5,380 711,880 355.5,500 711,-880"
       opacity="0.51"
       id="path9911" />
    <path
       d="m 0,-456 q 355.5,356 711,856 355.5,500 711,-856"
       opacity="0.54"
       id="path9913" />
    <path
       d="m 0,-432 q 355.5,332 711,832 355.5,500 711,-832"
       opacity="0.56"
       id="path9915" />
    <path
       d="m 0,-408 q 355.5,308 711,808 355.5,500 711,-808"
       opacity="0.59"
       id="path9917" />
    <path
       d="m 0,-384 q 355.5,284 711,784 355.5,500 711,-784"
       opacity="0.61"
       id="path9919" />
    <path
       d="m 0,-360 q 355.5,260 711,760 355.5,500 711,-760"
       opacity="0.64"
       id="path9921" />
    <path
       d="m 0,-336 q 355.5,236 711,736 355.5,500 711,-736"
       opacity="0.67"
       id="path9923" />
    <path
       d="m 0,-312 q 355.5,212 711,712 355.5,500 711,-712"
       opacity="0.69"
       id="path9925" />
    <path
       d="m 0,-288 q 355.5,188 711,688 355.5,500 711,-688"
       opacity="0.72"
       id="path9927" />
    <path
       d="m 0,-264 q 355.5,164 711,664 355.5,500 711,-664"
       opacity="0.74"
       id="path9929" />
    <path
       d="m 0,-240 q 355.5,140 711,640 355.5,500 711,-640"
       opacity="0.77"
       id="path9931" />
    <path
       d="m 0,-216 q 355.5,116 711,616 355.5,500 711,-616"
       opacity="0.79"
       id="path9933" />
    <path
       d="m 0,-192 q 355.5,92 711,592 355.5,500 711,-592"
       opacity="0.82"
       id="path9935" />
    <path
       d="m 0,-168 q 355.5,68 711,568 355.5,500 711,-568"
       opacity="0.85"
       id="path9937" />
    <path
       d="m 0,-144 q 355.5,44 711,544 355.5,500 711,-544"
       opacity="0.87"
       id="path9939" />
    <path
       d="m 0,-120 q 355.5,20 711,520 355.5,500 711,-520"
       opacity="0.9"
       id="path9941" />
    <path
       d="m 0,-96 q 355.5,-4 711,496 355.5,500 711,-496"
       opacity="0.92"
       id="path9943" />
    <path
       d="m 0,-72 q 355.5,-28 711,472 355.5,500 711,-472"
       opacity="0.95"
       id="path9945" />
    <path
       d="m 0,-48 q 355.5,-52 711,448 355.5,500 711,-448"
       opacity="0.97"
       id="path9947" />
  </g>
</svg>
