<?xml version="1.0" encoding="UTF-8" standalone="no"?>
<svg
   width="100"
   height="100"
   viewBox="0 0 24 24"
   fill="none"
   opacity="0.3"
   version="1.1"
   id="svg877"
   sodipodi:docname="image.svg"
   inkscape:version="1.1.2 (0a00cf5339, 2022-02-04)"
   xmlns:inkscape="http://www.inkscape.org/namespaces/inkscape"
   xmlns:sodipodi="http://sodipodi.sourceforge.net/DTD/sodipodi-0.dtd"
   xmlns="http://www.w3.org/2000/svg"
   xmlns:svg="http://www.w3.org/2000/svg">
  <defs
     id="defs881" />
  <sodipodi:namedview
     id="namedview879"
     pagecolor="#ffffff"
     bordercolor="#666666"
     borderopacity="1.0"
     inkscape:pageshadow="2"
     inkscape:pageopacity="0.0"
     inkscape:pagecheckerboard="0"
     showgrid="false"
     inkscape:zoom="5.8548441"
     inkscape:cx="41.760292"
     inkscape:cy="43.724477"
     inkscape:window-width="1920"
     inkscape:window-height="1020"
     inkscape:window-x="1920"
     inkscape:window-y="1108"
     inkscape:window-maximized="1"
     inkscape:current-layer="svg877" />
  <path
     fill="currentColor"
     d="m 17.234291,7.1143488 h -2.113333 l -1.22,-1.3333333 H 9.9009577 l -1.22,1.3333333 H 6.5676243 c -0.7333333,0 -1.3333333,0.6 -1.3333333,1.3333334 v 7.9999998 c 0,0.733333 0.6,1.333333 1.3333333,1.333333 H 17.234291 c 0.733333,0 1.333333,-0.6 1.333333,-1.333333 V 8.4476822 c 0,-0.7333334 -0.6,-1.3333334 -1.333333,-1.3333334 z m -5.333333,8.6666662 c -1.84,0 -3.3333337,-1.493333 -3.3333337,-3.333333 0,-1.84 1.4933337,-3.3333332 3.3333337,-3.3333332 1.84,0 3.333333,1.4933332 3.333333,3.3333332 0,1.84 -1.493333,3.333333 -3.333333,3.333333 z m 0,-5.333333 c -1.106667,0 -2.0000003,0.893333 -2.0000003,2 0,1.106666 0.8933333,2 2.0000003,2 1.106666,0 2,-0.893334 2,-2 0,-1.106667 -0.893334,-2 -2,-2 z"
     id="path875"
     style="stroke-width:0.666667;fill:#000000;fill-opacity:0.30000001" />
</svg>
