<?xml version="1.0" encoding="UTF-8" standalone="no"?>
<!-- Created with Inkscape (http://www.inkscape.org/) -->

<svg
   version="1.1"
   id="svg2"
   width="48"
   height="48"
   viewBox="0 0 48 48"
   sodipodi:docname="cardano.svg"
   inkscape:version="1.1.2 (0a00cf5339, 2022-02-04)"
   xmlns:inkscape="http://www.inkscape.org/namespaces/inkscape"
   xmlns:sodipodi="http://sodipodi.sourceforge.net/DTD/sodipodi-0.dtd"
   xmlns="http://www.w3.org/2000/svg"
   xmlns:svg="http://www.w3.org/2000/svg">
  <defs
     id="defs6" />
  <sodipodi:namedview
     id="namedview4"
     pagecolor="#ffffff"
     bordercolor="#666666"
     borderopacity="1.0"
     inkscape:pageshadow="2"
     inkscape:pageopacity="0.0"
     inkscape:pagecheckerboard="0"
     showgrid="false"
     inkscape:zoom="9.1923881"
     inkscape:cx="39.21723"
     inkscape:cy="22.953774"
     inkscape:window-width="1920"
     inkscape:window-height="1048"
     inkscape:window-x="0"
     inkscape:window-y="0"
     inkscape:window-maximized="1"
     inkscape:current-layer="g8" />
  <g
     inkscape:groupmode="layer"
     inkscape:label="Image"
     id="g8">
    <path
       style="fill:#000000;stroke-width:0.0640996"
       d="m 23.61397,46.009326 c -0.313744,-0.07481 -0.628971,-0.298128 -0.829686,-0.587758 -0.24825,-0.358227 -0.296383,-1.000027 -0.103175,-1.375792 0.681079,-1.324654 2.640596,-0.892429 2.640596,0.582454 0,0.636902 -0.39119,1.170052 -0.989154,1.348113 -0.343117,0.102176 -0.414658,0.105458 -0.718576,0.03298 z M 11.604385,44.777111 c -1.066955,-0.302453 -1.172862,-1.71697 -0.162901,-2.175732 0.337272,-0.153201 0.636572,-0.150862 0.963768,0.0075 0.319085,0.154467 0.517653,0.40805 0.620432,0.792332 0.218993,0.818791 -0.597665,1.609347 -1.421299,1.375869 z m 24.027961,-0.02671 C 35.272752,44.641579 34.971852,44.324 34.870018,43.945817 34.646906,43.117243 35.447919,42.3202 36.278866,42.54395 c 0.522458,0.140684 0.855474,0.577755 0.855474,1.122783 0,0.177925 -0.04636,0.413134 -0.103011,0.522688 -0.127119,0.24583 -0.449892,0.524228 -0.657394,0.567024 -0.385272,0.07946 -0.461096,0.07883 -0.741595,-0.006 z m -21.32304,-4.743002 c -0.657353,-0.327574 -1.018486,-0.975746 -0.958688,-1.720692 0.01742,-0.217102 0.07928,-0.486784 0.137469,-0.599293 0.550789,-1.065109 1.887553,-1.348554 2.755762,-0.584325 0.383709,0.337753 0.561358,0.687776 0.60124,1.18463 0.05972,0.74387 -0.301808,1.392303 -0.958769,1.71968 -0.264257,0.131686 -0.426904,0.165907 -0.788508,0.165907 -0.361602,0 -0.524249,-0.03423 -0.788506,-0.165907 z m 17.890464,0.06048 c -0.898985,-0.318451 -1.341,-1.504425 -0.897389,-2.40779 0.661046,-1.346146 2.679817,-1.243538 3.217178,0.163521 0.24488,0.641212 0.0263,1.496085 -0.495083,1.936199 -0.480529,0.405634 -1.204313,0.527833 -1.824706,0.30807 z m -8.586001,-0.986117 c -0.949167,-0.190306 -1.557452,-0.905924 -1.61184,-1.896252 -0.0255,-0.464361 -0.0097,-0.56201 0.147948,-0.913258 0.34131,-0.760538 1.003466,-1.19269 1.825731,-1.191553 0.635064,8.78e-4 1.045622,0.180851 1.468778,0.643852 0.379075,0.414766 0.518309,0.792252 0.518309,1.4052 0,0.799264 -0.43793,1.464423 -1.182918,1.796696 -0.386635,0.172445 -0.803573,0.227983 -1.166008,0.155315 z M 4.6973862,35.752043 c -0.31693,-0.143858 -0.553609,-0.380203 -0.733937,-0.7329 -0.199027,-0.389269 -0.145917,-1.089948 0.110672,-1.460079 0.553419,-0.798314 1.792306,-0.832273 2.380369,-0.06526 0.261875,0.34157 0.364307,0.802189 0.273033,1.227782 -0.192478,0.897491 -1.198303,1.408024 -2.030137,1.030446 z m 37.4623148,0.06141 c -0.534745,-0.160508 -0.942276,-0.763615 -0.939894,-1.390955 0.0018,-0.474715 0.160974,-0.825084 0.510905,-1.124614 0.917335,-0.785204 2.369001,-0.100672 2.371543,1.11831 0.0021,1.001669 -0.958521,1.692625 -1.942554,1.397259 z m -23.123468,-1.87622 c -1.459099,-0.497426 -2.36798,-1.749634 -2.36798,-3.262476 0,-1.540251 0.982993,-2.8331 2.495494,-3.282111 0.202866,-0.06022 0.579194,-0.103353 0.901785,-0.103353 3.135215,0 4.617994,3.839784 2.290771,5.932157 -0.37169,0.334182 -0.946763,0.646869 -1.425427,0.775052 -0.512288,0.137187 -1.399824,0.109424 -1.894643,-0.05927 z m 7.880428,0.02453 c -1.622282,-0.51896 -2.635909,-2.151461 -2.375577,-3.825992 0.358872,-2.308355 2.884979,-3.549524 4.973908,-2.443862 0.7541,0.399142 1.410434,1.22379 1.665707,2.092872 0.116316,0.395977 0.133505,1.297426 0.03308,1.733296 -0.248903,1.080183 -1.211498,2.105831 -2.2886,2.438515 -0.539988,0.166784 -1.495612,0.169246 -2.008511,0.0052 z M 11.367206,32.622324 c -0.91372,-0.326488 -1.3992458,-1.000043 -1.3953698,-1.935756 0.0026,-0.636147 0.1831488,-1.04651 0.6467138,-1.470183 1.007139,-0.920468 2.50287,-0.639709 3.148303,0.590956 0.151011,0.287937 0.175407,0.410056 0.175642,0.879227 3.2e-4,0.630832 -0.124507,0.973645 -0.509783,1.400103 -0.500321,0.553795 -1.377845,0.781364 -2.065506,0.535653 z m 23.999072,-0.04112 c -1.397068,-0.498345 -1.78242,-2.280903 -0.722268,-3.341057 1.122519,-1.122519 2.946793,-0.610549 3.343606,0.938361 0.234154,0.913995 -0.212804,1.867439 -1.078133,2.299848 -0.328223,0.164015 -0.463635,0.19485 -0.845315,0.192488 -0.249965,-0.0015 -0.564017,-0.04189 -0.69789,-0.08964 z M 15.052796,27.357825 c -2.392985,-0.765131 -3.138905,-3.787191 -1.371109,-5.554987 1.455689,-1.455688 3.887408,-1.26979 5.070093,0.387594 0.404097,0.566289 0.558268,1.022225 0.594866,1.759202 0.03544,0.713777 -0.04882,1.159355 -0.328503,1.737165 -0.383049,0.791344 -1.305563,1.528991 -2.157591,1.725222 -0.462681,0.106566 -1.39213,0.0787 -1.807756,-0.05419 z m 15.845568,-0.02212 c -1.103801,-0.3777 -1.789872,-1.058718 -2.151329,-2.135476 -0.151497,-0.451304 -0.166434,-0.576014 -0.141199,-1.178882 0.03317,-0.792429 0.141115,-1.142585 0.536326,-1.739755 0.715237,-1.080731 2.089274,-1.654004 3.370927,-1.406412 2.208004,0.426546 3.362901,2.762919 2.378435,4.811615 -0.211333,0.439787 -0.96185,1.205842 -1.397125,1.426051 -0.798519,0.403975 -1.812383,0.491011 -2.596035,0.222859 z m 9.550426,-1.769167 c -0.475382,-0.155651 -0.884193,-0.512225 -1.05398,-0.919302 -0.145188,-0.3481 -0.128733,-0.974641 0.03443,-1.311717 0.459584,-0.949374 1.747232,-1.153623 2.506499,-0.397584 0.777891,0.774586 0.572637,1.997869 -0.420212,2.50438 -0.277699,0.141673 -0.820428,0.204873 -1.066743,0.12422 z M 6.5405172,25.425214 c -0.624704,-0.282781 -0.925637,-0.74998 -0.925637,-1.437055 0,-0.536502 0.147996,-0.866591 0.538342,-1.200713 0.462174,-0.395603 1.081626,-0.477957 1.639856,-0.218011 0.568606,0.264777 0.869077,0.755969 0.874107,1.428933 0.0083,1.111144 -1.132792,1.87674 -2.126668,1.426846 z M 1.0358516,25.302074 C 0.70443238,25.223824 0.31744768,24.91702 0.14664778,24.597106 c -0.218345,-0.408967 -0.1893033,-1.078755 0.063327,-1.460504 0.5477612,-0.827724 1.80453142,-0.823062 2.31870822,0.0086 0.2194578,0.354965 0.2870732,0.860273 0.1647206,1.231005 -0.1255559,0.380436 -0.5360758,0.781045 -0.91598,0.893865 -0.3540068,0.10513 -0.4198243,0.107974 -0.7415716,0.032 z m 44.9420494,-0.07067 c -0.51276,-0.253812 -0.785326,-0.713389 -0.785326,-1.324147 0,-0.517063 0.28562,-0.999497 0.725054,-1.224672 1.144301,-0.586363 2.40925,0.487611 2.005622,1.702822 -0.265253,0.798602 -1.210574,1.209704 -1.94535,0.845997 z M 19.039938,20.79755 c -1.444406,-0.49425 -2.371685,-1.778009 -2.371685,-3.28345 0,-0.898683 0.342483,-1.71656 0.993543,-2.372662 1.785205,-1.799031 4.913145,-1.042134 5.680227,1.374495 0.19818,0.62435 0.189504,1.493293 -0.02091,2.094402 -0.389958,1.114012 -1.271666,1.948551 -2.366579,2.239973 -0.533987,0.142125 -1.416097,0.11782 -1.914593,-0.05276 z m 7.928335,0.04962 c -0.889414,-0.244494 -1.720654,-0.940238 -2.114415,-1.769756 -0.656985,-1.384036 -0.431734,-2.861534 0.59604,-3.909646 0.662464,-0.675573 1.472962,-1.019499 2.399345,-1.018137 0.943513,0.0014 1.654832,0.287431 2.353307,0.946335 0.690506,0.65139 1.080412,1.549211 1.080412,2.487827 0,1.484735 -1.027747,2.826255 -2.495494,3.257372 -0.421699,0.123865 -1.378953,0.127023 -1.819195,0.006 z M 11.242642,19.46775 C 10.78909,19.287988 10.365185,18.89607 10.149719,18.457294 9.9977582,18.147843 9.9699702,18.011378 9.9706552,17.577904 c 6.79e-4,-0.430339 0.02963,-0.572009 0.1795028,-0.878334 0.75299,-1.539059 2.887416,-1.538514 3.645695,9.3e-4 0.212172,0.430748 0.212206,1.329607 6.4e-5,1.729911 -0.216251,0.408062 -0.571551,0.771143 -0.937525,0.958057 -0.44906,0.229344 -1.150314,0.263755 -1.615753,0.07929 z m 24.359523,0.07252 c -1.50201,-0.38675 -2.066667,-2.202183 -1.045707,-3.362055 0.384859,-0.437222 0.870426,-0.651683 1.469874,-0.649201 0.617469,0.0026 1.03872,0.18219 1.444452,0.615951 0.419742,0.448738 0.564507,0.809315 0.565468,1.408461 6.47e-4,0.40133 -0.03001,0.550955 -0.172585,0.842365 -0.201226,0.411292 -0.637918,0.839732 -1.034884,1.01533 -0.317211,0.140316 -0.931898,0.205036 -1.226618,0.129156 z M 4.7633772,14.879578 c -0.407368,-0.149396 -0.824047,-0.644927 -0.916408,-1.089829 -0.270618,-1.30356 1.099781,-2.284408 2.222168,-1.59049 0.188593,0.116603 0.38285,0.311746 0.501735,0.504039 0.168625,0.272745 0.193994,0.373766 0.193994,0.772527 0,0.398762 -0.02537,0.499782 -0.193994,0.772527 -0.377937,0.611299 -1.138028,0.876744 -1.807495,0.631226 z m 37.3924648,0.0119 c -0.564048,-0.208863 -0.949074,-0.798432 -0.945964,-1.448505 0.0074,-1.540824 2.064573,-2.013743 2.784666,-0.640151 0.162489,0.309955 0.181056,0.401364 0.153684,0.756599 -0.0603,0.782592 -0.629687,1.361579 -1.380376,1.403657 -0.208973,0.01176 -0.469251,-0.01873 -0.61201,-0.0716 z M 23.30747,13.021317 c -0.447886,-0.142914 -1.064458,-0.766427 -1.219225,-1.232952 -0.151579,-0.456918 -0.117424,-1.153614 0.07598,-1.549569 0.175003,-0.3582928 0.52429,-0.7230698 0.908841,-0.9491418 0.263211,-0.154736 0.356629,-0.172583 0.902546,-0.172424 0.508749,1.28e-4 0.653476,0.02394 0.879587,0.144617 0.429185,0.229056 0.701878,0.5062 0.9122,0.9270928 0.163109,0.326409 0.1953,0.466501 0.1953,0.84992 0,0.2525 -0.04592,0.593864 -0.102053,0.758585 -0.132999,0.390327 -0.600618,0.905153 -1.012798,1.115039 -0.413014,0.21031 -1.075633,0.257127 -1.540379,0.108836 z m -8.690818,-1.620682 c -0.513879,-0.16859 -0.995207,-0.622783 -1.184071,-1.117313 -0.163262,-0.4274968 -0.110778,-1.0870758 0.117492,-1.4765898 0.729345,-1.244532 2.453146,-1.216771 3.099279,0.04991 0.448719,0.879668 0.09612,1.9756408 -0.779458,2.4227518 -0.281454,0.143725 -0.979011,0.211206 -1.253238,0.121239 z m 17.755589,0 c -0.334485,-0.109739 -0.570293,-0.26979 -0.826785,-0.561181 -0.814367,-0.9251708 -0.468901,-2.3230088 0.699,-2.8283088 0.123386,-0.05339 0.41184,-0.0974 0.640996,-0.09783 1.191893,-0.0022 2.009748,1.15484 1.654487,2.3405928 -0.09587,0.319994 -0.56434,0.8467 -0.910126,1.023275 -0.285721,0.145901 -0.981079,0.21416 -1.257572,0.123454 z M 11.377305,5.3760132 c -0.248888,-0.151778 -0.530697,-0.485822 -0.581875,-0.689733 -0.02185,-0.08705 -0.02686,-0.313503 -0.01108,-0.503233 0.05198,-0.6267383 0.491614,-1.0188593 1.146865,-1.0229046 0.647385,-0.00399 1.147497,0.4940303 1.147497,1.1427136 0,0.713921 -0.481974,1.192891 -1.199809,1.19233 -0.18539,-1.28e-4 -0.383607,-0.04725 -0.501561,-0.119174 z m 24.20033,0.04757 c -0.210111,-0.08354 -0.499341,-0.361204 -0.622984,-0.598079 -0.12571,-0.240844 -0.122305,-0.7971115 0.0064,-1.046018 0.324203,-0.6269358 1.122258,-0.8229959 1.727327,-0.4243553 0.579947,0.38209 0.650293,1.3714053 0.12999,1.8280873 -0.330462,0.290055 -0.858476,0.392345 -1.240738,0.240365 z M 23.580649,4.7819302 c -0.316419,-0.08865 -0.749839,-0.47115 -0.894333,-0.7892678 -0.345089,-0.7597501 0.08563,-1.700531 0.884932,-1.9328952 1.199171,-0.3486088 2.202013,0.8937452 1.626792,2.0153248 -0.295594,0.5763532 -0.993878,0.8815212 -1.617391,0.7068382 z"
       id="path863" />
  </g>
</svg>
