<?xml version="1.0" encoding="UTF-8" standalone="no"?>
<!-- Created with Inkscape (http://www.inkscape.org/) -->

<svg
   version="1.1"
   id="svg2"
   width="48"
   height="48"
   viewBox="0 0 48.000002 48.000002"
   sodipodi:docname="midnight.svg"
   inkscape:version="1.1.2 (0a00cf5339, 2022-02-04)"
   xmlns:inkscape="http://www.inkscape.org/namespaces/inkscape"
   xmlns:sodipodi="http://sodipodi.sourceforge.net/DTD/sodipodi-0.dtd"
   xmlns="http://www.w3.org/2000/svg"
   xmlns:svg="http://www.w3.org/2000/svg">
  <defs
     id="defs6" />
  <sodipodi:namedview
     id="namedview4"
     pagecolor="#ffffff"
     bordercolor="#666666"
     borderopacity="1.0"
     inkscape:pageshadow="2"
     inkscape:pageopacity="0.0"
     inkscape:pagecheckerboard="0"
     showgrid="false"
     inkscape:zoom="6.3189878"
     inkscape:cx="16.062699"
     inkscape:cy="28.485575"
     inkscape:window-width="1920"
     inkscape:window-height="1048"
     inkscape:window-x="0"
     inkscape:window-y="0"
     inkscape:window-maximized="1"
     inkscape:current-layer="g8" />
  <g
     inkscape:groupmode="layer"
     inkscape:label="Image"
     id="g8">
    <path
       style="fill:#000000;stroke-width:0.0607595"
       d="m 22.632911,47.964812 c -0.13367,-0.01294 -0.58481,-0.05373 -1.002531,-0.09065 -2.748136,-0.242901 -5.702144,-1.08501 -8.232912,-2.346984 C 10.935638,44.29958 8.9759872,42.889306 7.0455864,40.956012 4.3856396,38.292078 2.4936109,35.2617 1.3013001,31.755647 -0.08166752,27.688956 -0.34598051,23.439893 0.51815765,19.165947 2.2115019,10.790825 8.3672798,3.8968663 16.539225,1.2236866 19.047724,0.40311482 21.232799,0.06325271 24,0.06325271 c 3.910186,0 7.324405,0.79833562 10.734343,2.50997629 10.73283,5.3874148 15.829126,17.817856 11.964357,29.182418 -0.899872,2.646123 -2.240968,5.084038 -4.022715,7.312707 -0.846818,1.059229 -2.564142,2.777132 -3.607631,3.608845 -3.659394,2.916725 -7.800107,4.644961 -12.394936,5.173352 -0.770549,0.08861 -3.506189,0.165972 -4.040507,0.114261 z m 4.054169,-4.576123 c 5.332602,-0.791099 9.913451,-3.540143 13.110018,-7.867539 3.176058,-4.299631 4.42692,-9.902703 3.39947,-15.227479 C 41.880346,13.472333 36.910728,7.7693499 30.318987,5.5157484 28.227574,4.8007306 26.267276,4.4791551 24,4.4791551 c -1.799007,0 -3.184295,0.1701768 -4.824177,0.5926297 C 13.230787,6.6032962 8.3605337,10.804348 5.9667856,16.465823 4.3378175,20.31851 4.0071875,24.696992 5.0371595,28.776715 6.9836646,36.486829 13.442474,42.28247 21.313065,43.381464 c 1.194918,0.16685 1.279734,0.171105 2.990732,0.150026 1.163822,-0.01434 1.75688,-0.04987 2.383283,-0.142801 z M 21.751899,24 V 21.751899 H 24 26.248101 V 24 26.248101 H 24 21.751899 Z m 0,-7.108861 V 14.643038 H 24 26.248101 v 2.248101 2.248102 H 24 21.751899 Z m 0,-7.1088605 V 7.5341772 H 24 26.248101 V 9.7822785 12.03038 H 24 21.751899 Z"
       id="path858" />
  </g>
</svg>
